SplineFontDB: 3.0
FontName: ShmiganEtched
FullName: ShmiganEtched
FamilyName: ShmiganEtched
Weight: Regular
Copyright: Copyright (c) 2018, Louis
UComments: "2018-6-13: Created with FontForge (http://fontforge.org)"
Version: 001.000
ItalicAngle: 0
UnderlinePosition: -100
UnderlineWidth: 50
Ascent: 800
Descent: 200
InvalidEm: 0
LayerCount: 2
Layer: 0 0 "Back" 1
Layer: 1 0 "Fore" 0
XUID: [1021 572 56815590 8413]
OS2Version: 0
OS2_WeightWidthSlopeOnly: 0
OS2_UseTypoMetrics: 1
CreationTime: 1528947412
ModificationTime: 1528948642
OS2TypoAscent: 0
OS2TypoAOffset: 1
OS2TypoDescent: 0
OS2TypoDOffset: 1
OS2TypoLinegap: 0
OS2WinAscent: 0
OS2WinAOffset: 1
OS2WinDescent: 0
OS2WinDOffset: 1
HheadAscent: 0
HheadAOffset: 1
HheadDescent: 0
HheadDOffset: 1
OS2Vendor: 'PfEd'
Lookup: 4 0 1 "'liga' Standard Ligatures in Latin lookup 0" { "'liga' Standard Ligatures in Latin lookup 0-1"  } ['liga' ('DFLT' <'dflt' > 'latn' <'dflt' > ) ]
MarkAttachClasses: 1
DEI: 91125
Encoding: ISO8859-1
Compacted: 1
UnicodeInterp: none
NameList: AGL For New Fonts
DisplaySize: -48
AntiAlias: 1
FitToEm: 0
WinInfo: 0 39 14
BeginPrivate: 0
EndPrivate
BeginChars: 460 204

StartChar: sh_i
Encoding: 422 105 166
Width: 574
Flags: HW
LayerCount: 2
Fore
SplineSet
246 614 m 1
 246 614 246 614 328 614 c 1
 324.666666667 580 317.666666667 512 307 410 c 1
 307 410 307 410 266 410 c 1
 266 410 266 410 246 614 c 1
EndSplineSet
Comment: "."
EndChar

StartChar: sh_e
Encoding: 423 101 167
Width: 574
Flags: HW
LayerCount: 2
Fore
SplineSet
205 594 m 1
 205 594 205 594 266 594 c 1
 266 594 266 594 246 430 c 1
 246 430 246 430 225 430 c 1
 225 430 225 430 205 594 c 1
348 430 m 1
 348 430 348 430 328 430 c 1
 324.666666667 457.333333333 317.666666667 512 307 594 c 1
 307 594 307 594 369 594 c 1
 365.666666667 566.666666667 358.666666667 512 348 430 c 1
EndSplineSet
Comment: "."
EndChar

StartChar: sh_a
Encoding: 424 97 168
Width: 574
Flags: HW
LayerCount: 2
Fore
SplineSet
410 532 m 1
 410 532 410 532 410 492 c 1
 410 492 410 492 164 492 c 1
 164 492 164 492 164 532 c 1
 164 532 164 532 410 532 c 1
EndSplineSet
Comment: "."
EndChar

StartChar: sh_o
Encoding: 425 111 169
Width: 574
Flags: HW
LayerCount: 2
Fore
SplineSet
205 594 m 1
 205 594 205 594 266 594 c 1
 266 594 266 594 246 430 c 1
 246 430 246 430 225 430 c 1
 225 430 225 430 205 594 c 1
348 430 m 1
 348 430 348 430 328 430 c 1
 324.666666667 457.333333333 317.666666667 512 307 594 c 1
 307 594 307 594 369 594 c 1
 365.666666667 566.666666667 358.666666667 512 348 430 c 1
410 532 m 1
 410 492 l 1
 164 492 l 1
 164 532 l 1
 410 532 l 1
EndSplineSet
Comment: "."
EndChar

StartChar: sh_u
Encoding: 426 117 170
Width: 574
Flags: HW
LayerCount: 2
Fore
SplineSet
246 614 m 1
 246 614 246 614 328 614 c 1
 324.666666667 580 317.666666667 512 307 410 c 1
 307 410 307 410 266 410 c 1
 266 410 266 410 246 614 c 1
410 532 m 1
 410 492 l 1
 164 492 l 1
 164 532 l 1
 410 532 l 1
EndSplineSet
Comment: "."
EndChar

StartChar: sh_t
Encoding: 427 116 171
Width: 574
Flags: HW
LayerCount: 2
Fore
SplineSet
82 512 m 1
 82 512 82 512 0 512 c 1
 48 549.333333333 143.666666667 624.333333333 287 737 c 1
 334.333333333 699.666666667 429.666666667 624.666666667 573 512 c 1
 573 512 573 512 492 512 c 1
 457.333333333 539.333333333 389 594 287 676 c 1
 253 648.666666667 184.666666667 594 82 512 c 1
573 512 m 1
 525.666666667 426.666666667 430.333333333 256 287 0 c 1
 321 85.3333333333 389.333333333 256 492 512 c 1
 573 512 l 1
EndSplineSet
Comment: "."
EndChar

StartChar: sh_k
Encoding: 428 107 172
Width: 574
Flags: HW
LayerCount: 2
Fore
SplineSet
82 512 m 1
 116 426.666666667 184.333333333 256 287 0 c 1
 239 85.3333333333 143.333333333 256 0 512 c 1
 0 512 0 512 82 512 c 1
82 512 m 1
 0 512 l 1
 48 549.333333333 143.666666667 624.333333333 287 737 c 1
 334.333333333 699.666666667 429.666666667 624.666666667 573 512 c 1
 492 512 l 1
 457.333333333 539.333333333 389 594 287 676 c 1
 253 648.666666667 184.666666667 594 82 512 c 1
EndSplineSet
Comment: "."
EndChar

StartChar: sh_p
Encoding: 429 112 173
Width: 574
Flags: HW
LayerCount: 2
Fore
SplineSet
573 512 m 1
 525.666666667 426.666666667 430.333333333 256 287 0 c 1
 321 85.3333333333 389.333333333 256 492 512 c 1
 492 512 492 512 573 512 c 1
82 512 m 1
 0 512 l 1
 48 549.333333333 143.666666667 624.333333333 287 737 c 1
 334.333333333 699.666666667 429.666666667 624.666666667 573 512 c 1
 492 512 l 1
 457.333333333 539.333333333 389 594 287 676 c 1
 253 648.666666667 184.666666667 594 82 512 c 1
82 512 m 1
 116 426.666666667 184.333333333 256 287 0 c 1
 239 85.3333333333 143.333333333 256 0 512 c 1
 82 512 l 1
EndSplineSet
Comment: "."
EndChar

StartChar: sh_th
Encoding: 430 -1 174
Width: 0
Flags: HW
LayerCount: 2
Fore
SplineSet
430 225 m 1
 430 225 430 225 512 225 c 1
 498.666666667 197.666666667 471.333333333 143 430 61 c 1
 430 61 430 61 430 102 c 2
 430 102 430 102 430 225 c 1
82 512 m 1
 0 512 l 1
 48 549.333333333 143.666666667 624.333333333 287 737 c 1
 334.333333333 699.666666667 429.666666667 624.666666667 573 512 c 1
 492 512 l 1
 457.333333333 539.333333333 389 594 287 676 c 1
 253 648.666666667 184.666666667 594 82 512 c 1
573 512 m 1
 525.666666667 426.666666667 430.333333333 256 287 0 c 1
 321 85.3333333333 389.333333333 256 492 512 c 1
 573 512 l 1
EndSplineSet
Comment: "."
EndChar

StartChar: sh_sh
Encoding: 431 -1 175
Width: 0
Flags: HW
LayerCount: 2
Fore
SplineSet
82 512 m 1
 82 512 82 512 0 512 c 1
 48 549.333333333 143.666666667 624.333333333 287 737 c 1
 334.333333333 699.666666667 429.666666667 624.666666667 573 512 c 1
 573 512 573 512 492 512 c 1
 457.333333333 539.333333333 389 594 287 676 c 1
 253 648.666666667 184.666666667 594 82 512 c 1
82 512 m 1
 116 426.666666667 184.333333333 256 287 0 c 1
 239 85.3333333333 143.333333333 256 0 512 c 1
 82 512 l 1
61 225 m 1
 143 225 l 1
 143 61 l 1
 129.666666667 88.3333333333 102.333333333 143 61 225 c 1
EndSplineSet
Comment: "."
EndChar

StartChar: sh_x
Encoding: 432 120 176
Width: 574
Flags: HW
LayerCount: 2
Fore
SplineSet
430 225 m 1
 430 225 430 225 512 225 c 1
 498.666666667 197.666666667 471.333333333 143 430 61 c 1
 430 61 430 61 430 102 c 2
 430 102 430 102 430 225 c 1
61 225 m 1
 143 225 l 1
 143 61 l 1
 129.666666667 88.3333333333 102.333333333 143 61 225 c 1
82 512 m 1
 0 512 l 1
 48 549.333333333 143.666666667 624.333333333 287 737 c 1
 334.333333333 699.666666667 429.666666667 624.666666667 573 512 c 1
 492 512 l 1
 457.333333333 539.333333333 389 594 287 676 c 1
 253 648.666666667 184.666666667 594 82 512 c 1
573 512 m 1
 525.666666667 426.666666667 430.333333333 256 287 0 c 1
 321 85.3333333333 389.333333333 256 492 512 c 1
 573 512 l 1
82 512 m 1
 116 426.666666667 184.333333333 256 287 0 c 1
 239 85.3333333333 143.333333333 256 0 512 c 1
 82 512 l 1
EndSplineSet
Comment: "."
EndChar

StartChar: sh_r
Encoding: 433 114 177
Width: 574
Flags: HW
LayerCount: 2
Fore
SplineSet
287 246 m 1
 287 246 287 246 492 246 c 1
 492 246 492 246 492 205 c 1
 492 205 492 205 287 205 c 1
 287 205 287 205 287 233 c 2
 287 233 287 233 287 246 c 1
82 512 m 1
 0 512 l 1
 48 549.333333333 143.666666667 624.333333333 287 737 c 1
 334.333333333 699.666666667 429.666666667 624.666666667 573 512 c 1
 492 512 l 1
 457.333333333 539.333333333 389 594 287 676 c 1
 253 648.666666667 184.666666667 594 82 512 c 1
573 512 m 1
 525.666666667 426.666666667 430.333333333 256 287 0 c 1
 321 85.3333333333 389.333333333 256 492 512 c 1
 573 512 l 1
EndSplineSet
Comment: "."
EndChar

StartChar: sh_l
Encoding: 434 108 178
Width: 574
Flags: HW
LayerCount: 2
Fore
SplineSet
82 246 m 1
 82 246 82 246 287 246 c 1
 287 246 287 246 287 211 c 2
 287 211 287 211 287 205 c 1
 287 205 287 205 82 205 c 1
 82 205 82 205 82 246 c 1
82 512 m 1
 0 512 l 1
 48 549.333333333 143.666666667 624.333333333 287 737 c 1
 334.333333333 699.666666667 429.666666667 624.666666667 573 512 c 1
 492 512 l 1
 457.333333333 539.333333333 389 594 287 676 c 1
 253 648.666666667 184.666666667 594 82 512 c 1
82 512 m 1
 116 426.666666667 184.333333333 256 287 0 c 1
 239 85.3333333333 143.333333333 256 0 512 c 1
 82 512 l 1
EndSplineSet
Comment: "."
EndChar

StartChar: sh_n
Encoding: 435 110 179
Width: 574
Flags: HW
LayerCount: 2
Fore
SplineSet
277 246 m 5
 277 246 277 246 482 246 c 5
 482 246 482 246 482 205 c 5
 482 205 482 205 277 205 c 5
 277 205 277 205 277 233 c 6
 277 233 277 233 277 246 c 5
72 246 m 5
 277 246 l 5
 277 211 l 5
 277 205 l 5
 72 205 l 5
 72 246 l 5
72 512 m 1
 -10 512 l 1
 38 549.333333333 133.666666667 624.333333333 277 737 c 1
 324.333333333 699.666666667 419.666666667 624.666666667 563 512 c 1
 482 512 l 1
 447.333333333 539.333333333 379 594 277 676 c 1
 243 648.666666667 174.666666667 594 72 512 c 1
563 512 m 1
 515.666666667 426.666666667 420.333333333 256 277 0 c 1
 311 85.3333333333 379.333333333 256 482 512 c 1
 563 512 l 1
72 512 m 1
 106 426.666666667 174.333333333 256 277 0 c 1
 229 85.3333333333 133.333333333 256 -10 512 c 1
 72 512 l 1
EndSplineSet
Comment: "."
EndChar

StartChar: sh_st
Encoding: 436 -1 180
Width: 0
Flags: HW
LayerCount: 2
Fore
SplineSet
287 369 m 1
 321 392.333333333 389.333333333 440 492 512 c 1
 492 512 492 512 573 512 c 1
 525.666666667 478 430.333333333 409.666666667 287 307 c 1
 239 341 143.333333333 409.333333333 0 512 c 1
 0 512 0 512 82 512 c 1
 116 488 184.333333333 440.333333333 287 369 c 1
573 512 m 1
 525.666666667 426.666666667 430.333333333 256 287 0 c 1
 321 85.3333333333 389.333333333 256 492 512 c 1
 573 512 l 1
EndSplineSet
Comment: "."
EndChar

StartChar: sh_sk
Encoding: 437 -1 181
Width: 0
Flags: HW
LayerCount: 2
Fore
SplineSet
287 369 m 1
 321 392.333333333 389.333333333 440 492 512 c 1
 492 512 492 512 573 512 c 1
 525.666666667 478 430.333333333 409.666666667 287 307 c 1
 239 341 143.333333333 409.333333333 0 512 c 1
 0 512 0 512 82 512 c 1
 116 488 184.333333333 440.333333333 287 369 c 1
82 512 m 1
 116 426.666666667 184.333333333 256 287 0 c 1
 239 85.3333333333 143.333333333 256 0 512 c 1
 82 512 l 1
EndSplineSet
Comment: "."
EndChar

StartChar: sh_sp
Encoding: 438 -1 182
Width: 0
Flags: HW
LayerCount: 2
Fore
SplineSet
573 512 m 1
 525.666666667 426.666666667 430.333333333 256 287 0 c 1
 321 85.3333333333 389.333333333 256 492 512 c 1
 492 512 492 512 573 512 c 1
82 512 m 1
 116 426.666666667 184.333333333 256 287 0 c 1
 239 85.3333333333 143.333333333 256 0 512 c 1
 82 512 l 1
287 369 m 1
 321 392.333333333 389.333333333 440 492 512 c 1
 573 512 l 1
 525.666666667 478 430.333333333 409.666666667 287 307 c 1
 239 341 143.333333333 409.333333333 0 512 c 1
 82 512 l 1
 116 488 184.333333333 440.333333333 287 369 c 1
EndSplineSet
Comment: "."
EndChar

StartChar: sh_sth
Encoding: 439 -1 183
Width: 0
Flags: HW
LayerCount: 2
Fore
SplineSet
430 225 m 1
 430 225 430 225 512 225 c 1
 498.666666667 197.666666667 471.333333333 143 430 61 c 1
 430 61 430 61 430 102 c 2
 430 102 430 102 430 225 c 1
287 369 m 1
 321 392.333333333 389.333333333 440 492 512 c 1
 573 512 l 1
 525.666666667 478 430.333333333 409.666666667 287 307 c 1
 239 341 143.333333333 409.333333333 0 512 c 1
 82 512 l 1
 116 488 184.333333333 440.333333333 287 369 c 1
573 512 m 1
 525.666666667 426.666666667 430.333333333 256 287 0 c 1
 321 85.3333333333 389.333333333 256 492 512 c 1
 573 512 l 1
EndSplineSet
Comment: "."
EndChar

StartChar: sh_ssh
Encoding: 440 -1 184
Width: 0
Flags: HW
LayerCount: 2
Fore
SplineSet
61 225 m 1
 61 225 61 225 143 225 c 1
 143 225 143 225 143 61 c 1
 129.666666667 88.3333333333 102.333333333 143 61 225 c 1
287 369 m 1
 321 392.333333333 389.333333333 440 492 512 c 1
 573 512 l 1
 525.666666667 478 430.333333333 409.666666667 287 307 c 1
 239 341 143.333333333 409.333333333 0 512 c 1
 82 512 l 1
 116 488 184.333333333 440.333333333 287 369 c 1
82 512 m 1
 116 426.666666667 184.333333333 256 287 0 c 1
 239 85.3333333333 143.333333333 256 0 512 c 1
 82 512 l 1
EndSplineSet
Comment: "."
EndChar

StartChar: sh_sx
Encoding: 441 -1 185
Width: 0
Flags: HW
LayerCount: 2
Fore
SplineSet
430 225 m 1
 430 225 430 225 512 225 c 1
 498.666666667 197.666666667 471.333333333 143 430 61 c 1
 430 61 430 61 430 102 c 2
 430 102 430 102 430 225 c 1
61 225 m 1
 143 225 l 1
 143 61 l 1
 129.666666667 88.3333333333 102.333333333 143 61 225 c 1
287 369 m 1
 321 392.333333333 389.333333333 440 492 512 c 1
 573 512 l 1
 525.666666667 478 430.333333333 409.666666667 287 307 c 1
 239 341 143.333333333 409.333333333 0 512 c 1
 82 512 l 1
 116 488 184.333333333 440.333333333 287 369 c 1
82 512 m 1
 116 426.666666667 184.333333333 256 287 0 c 1
 239 85.3333333333 143.333333333 256 0 512 c 1
 82 512 l 1
573 512 m 1
 525.666666667 426.666666667 430.333333333 256 287 0 c 1
 321 85.3333333333 389.333333333 256 492 512 c 1
 573 512 l 1
EndSplineSet
Comment: "."
EndChar

StartChar: sh_sr
Encoding: 442 -1 186
Width: 0
Flags: HW
LayerCount: 2
Fore
SplineSet
287 246 m 1
 287 246 287 246 492 246 c 1
 492 246 492 246 492 205 c 1
 492 205 492 205 287 205 c 1
 287 205 287 205 287 233 c 2
 287 233 287 233 287 246 c 1
573 512 m 1
 525.666666667 426.666666667 430.333333333 256 287 0 c 1
 321 85.3333333333 389.333333333 256 492 512 c 1
 573 512 l 1
287 369 m 1
 321 392.333333333 389.333333333 440 492 512 c 1
 573 512 l 1
 525.666666667 478 430.333333333 409.666666667 287 307 c 1
 239 341 143.333333333 409.333333333 0 512 c 1
 82 512 l 1
 116 488 184.333333333 440.333333333 287 369 c 1
EndSplineSet
Comment: "."
EndChar

StartChar: sh_sl
Encoding: 443 -1 187
Width: 0
Flags: HW
LayerCount: 2
Fore
SplineSet
82 246 m 1
 82 246 82 246 287 246 c 1
 287 246 287 246 287 211 c 2
 287 211 287 211 287 205 c 1
 287 205 287 205 82 205 c 1
 82 205 82 205 82 246 c 1
82 512 m 1
 116 426.666666667 184.333333333 256 287 0 c 1
 239 85.3333333333 143.333333333 256 0 512 c 1
 82 512 l 1
287 369 m 1
 321 392.333333333 389.333333333 440 492 512 c 1
 573 512 l 1
 525.666666667 478 430.333333333 409.666666667 287 307 c 1
 239 341 143.333333333 409.333333333 0 512 c 1
 82 512 l 1
 116 488 184.333333333 440.333333333 287 369 c 1
EndSplineSet
Comment: "."
EndChar

StartChar: sh_sn
Encoding: 444 -1 188
Width: 0
Flags: HW
LayerCount: 2
Fore
SplineSet
287 246 m 1
 287 246 287 246 492 246 c 1
 492 246 492 246 492 205 c 1
 492 205 492 205 287 205 c 1
 287 205 287 205 287 233 c 2
 287 233 287 233 287 246 c 1
82 246 m 1
 287 246 l 1
 287 211 l 1
 287 205 l 1
 82 205 l 1
 82 246 l 1
573 512 m 1
 525.666666667 426.666666667 430.333333333 256 287 0 c 1
 321 85.3333333333 389.333333333 256 492 512 c 1
 573 512 l 1
82 512 m 1
 116 426.666666667 184.333333333 256 287 0 c 1
 239 85.3333333333 143.333333333 256 0 512 c 1
 82 512 l 1
287 369 m 1
 321 392.333333333 389.333333333 440 492 512 c 1
 573 512 l 1
 525.666666667 478 430.333333333 409.666666667 287 307 c 1
 239 341 143.333333333 409.333333333 0 512 c 1
 82 512 l 1
 116 488 184.333333333 440.333333333 287 369 c 1
EndSplineSet
Comment: "."
EndChar

StartChar: sh_str
Encoding: 445 -1 189
Width: 0
Flags: HW
LayerCount: 2
Fore
SplineSet
573 512 m 1
 525.666666667 426.666666667 430.333333333 256 287 0 c 1
 321 85.3333333333 389.333333333 256 492 512 c 1
 492 512 492 512 573 512 c 1
287 348 m 1
 321 375.333333333 389.333333333 430 492 512 c 1
 573 512 l 1
 525.666666667 474.666666667 430.333333333 399.666666667 287 287 c 1
 239 324.333333333 143.333333333 399.333333333 0 512 c 1
 82 512 l 1
 116 484.666666667 184.333333333 430 287 348 c 1
82 512 m 1
 0 512 l 1
 48 549.333333333 143.666666667 624.333333333 287 737 c 1
 334.333333333 699.666666667 429.666666667 624.666666667 573 512 c 1
 492 512 l 1
 457.333333333 539.333333333 389 594 287 676 c 1
 253 648.666666667 184.666666667 594 82 512 c 1
EndSplineSet
Comment: "."
EndChar

StartChar: sh_skr
Encoding: 446 -1 190
Width: 0
Flags: HW
LayerCount: 2
Fore
SplineSet
82 512 m 1
 116 426.666666667 184.333333333 256 287 0 c 1
 239 85.3333333333 143.333333333 256 0 512 c 1
 0 512 0 512 82 512 c 1
287 348 m 1
 321 375.333333333 389.333333333 430 492 512 c 1
 573 512 l 1
 525.666666667 474.666666667 430.333333333 399.666666667 287 287 c 1
 239 324.333333333 143.333333333 399.333333333 0 512 c 1
 82 512 l 1
 116 484.666666667 184.333333333 430 287 348 c 1
82 512 m 1
 0 512 l 1
 48 549.333333333 143.666666667 624.333333333 287 737 c 1
 334.333333333 699.666666667 429.666666667 624.666666667 573 512 c 1
 492 512 l 1
 457.333333333 539.333333333 389 594 287 676 c 1
 253 648.666666667 184.666666667 594 82 512 c 1
EndSplineSet
Comment: "."
EndChar

StartChar: sh_spr
Encoding: 447 -1 191
Width: 0
Flags: HW
LayerCount: 2
Fore
SplineSet
287 348 m 1
 321 375.333333333 389.333333333 430 492 512 c 1
 492 512 492 512 573 512 c 1
 525.666666667 474.666666667 430.333333333 399.666666667 287 287 c 1
 239 324.333333333 143.333333333 399.333333333 0 512 c 1
 0 512 0 512 82 512 c 1
 116 484.666666667 184.333333333 430 287 348 c 1
82 512 m 1
 82 512 82 512 0 512 c 1
 48 549.333333333 143.666666667 624.333333333 287 737 c 1
 334.333333333 699.666666667 429.666666667 624.666666667 573 512 c 1
 573 512 573 512 492 512 c 1
 457.333333333 539.333333333 389 594 287 676 c 1
 253 648.666666667 184.666666667 594 82 512 c 1
573 512 m 1
 525.666666667 426.666666667 430.333333333 256 287 0 c 1
 321 85.3333333333 389.333333333 256 492 512 c 1
 573 512 l 1
82 512 m 1
 116 426.666666667 184.333333333 256 287 0 c 1
 239 85.3333333333 143.333333333 256 0 512 c 1
 82 512 l 1
EndSplineSet
Comment: "."
EndChar

StartChar: sh_thr
Encoding: 448 -1 192
Width: 0
Flags: HW
LayerCount: 2
Fore
SplineSet
430 225 m 1
 430 225 430 225 512 225 c 1
 498.666666667 197.666666667 471.333333333 143 430 61 c 1
 430 61 430 61 430 102 c 2
 430 102 430 102 430 225 c 1
573 512 m 1
 525.666666667 426.666666667 430.333333333 256 287 0 c 1
 321 85.3333333333 389.333333333 256 492 512 c 1
 573 512 l 1
287 348 m 1
 321 375.333333333 389.333333333 430 492 512 c 1
 573 512 l 1
 525.666666667 474.666666667 430.333333333 399.666666667 287 287 c 1
 239 324.333333333 143.333333333 399.333333333 0 512 c 1
 82 512 l 1
 116 484.666666667 184.333333333 430 287 348 c 1
82 512 m 1
 0 512 l 1
 48 549.333333333 143.666666667 624.333333333 287 737 c 1
 334.333333333 699.666666667 429.666666667 624.666666667 573 512 c 1
 492 512 l 1
 457.333333333 539.333333333 389 594 287 676 c 1
 253 648.666666667 184.666666667 594 82 512 c 1
EndSplineSet
Comment: "."
EndChar

StartChar: sh_shr
Encoding: 449 -1 193
Width: 0
Flags: HW
LayerCount: 2
Fore
SplineSet
61 225 m 1
 61 225 61 225 143 225 c 1
 143 225 143 225 143 61 c 1
 129.666666667 88.3333333333 102.333333333 143 61 225 c 1
82 512 m 1
 116 426.666666667 184.333333333 256 287 0 c 1
 239 85.3333333333 143.333333333 256 0 512 c 1
 82 512 l 1
287 348 m 1
 321 375.333333333 389.333333333 430 492 512 c 1
 573 512 l 1
 525.666666667 474.666666667 430.333333333 399.666666667 287 287 c 1
 239 324.333333333 143.333333333 399.333333333 0 512 c 1
 82 512 l 1
 116 484.666666667 184.333333333 430 287 348 c 1
82 512 m 1
 0 512 l 1
 48 549.333333333 143.666666667 624.333333333 287 737 c 1
 334.333333333 699.666666667 429.666666667 624.666666667 573 512 c 1
 492 512 l 1
 457.333333333 539.333333333 389 594 287 676 c 1
 253 648.666666667 184.666666667 594 82 512 c 1
EndSplineSet
Comment: "."
EndChar

StartChar: sh_xr
Encoding: 450 -1 194
Width: 0
Flags: HW
LayerCount: 2
Fore
SplineSet
430 225 m 1
 430 225 430 225 512 225 c 1
 498.666666667 197.666666667 471.333333333 143 430 61 c 1
 430 61 430 61 430 102 c 2
 430 102 430 102 430 225 c 1
61 225 m 1
 143 225 l 1
 143 61 l 1
 129.666666667 88.3333333333 102.333333333 143 61 225 c 1
573 512 m 1
 525.666666667 426.666666667 430.333333333 256 287 0 c 1
 321 85.3333333333 389.333333333 256 492 512 c 1
 573 512 l 1
82 512 m 1
 116 426.666666667 184.333333333 256 287 0 c 1
 239 85.3333333333 143.333333333 256 0 512 c 1
 82 512 l 1
287 348 m 1
 321 375.333333333 389.333333333 430 492 512 c 1
 573 512 l 1
 525.666666667 474.666666667 430.333333333 399.666666667 287 287 c 1
 239 324.333333333 143.333333333 399.333333333 0 512 c 1
 82 512 l 1
 116 484.666666667 184.333333333 430 287 348 c 1
82 512 m 1
 0 512 l 1
 48 549.333333333 143.666666667 624.333333333 287 737 c 1
 334.333333333 699.666666667 429.666666667 624.666666667 573 512 c 1
 492 512 l 1
 457.333333333 539.333333333 389 594 287 676 c 1
 253 648.666666667 184.666666667 594 82 512 c 1
EndSplineSet
Comment: "."
EndChar

StartChar: sh_thl
Encoding: 451 -1 195
Width: 0
Flags: HW
LayerCount: 2
Fore
SplineSet
287 246 m 1
 287 246 287 246 492 246 c 1
 492 246 492 246 492 205 c 1
 492 205 492 205 287 205 c 1
 287 205 287 205 287 233 c 2
 287 233 287 233 287 246 c 1
573 512 m 1
 525.666666667 426.666666667 430.333333333 256 287 0 c 1
 321 85.3333333333 389.333333333 256 492 512 c 1
 573 512 l 1
287 348 m 1
 321 375.333333333 389.333333333 430 492 512 c 1
 573 512 l 1
 525.666666667 474.666666667 430.333333333 399.666666667 287 287 c 1
 239 324.333333333 143.333333333 399.333333333 0 512 c 1
 82 512 l 1
 116 484.666666667 184.333333333 430 287 348 c 1
82 512 m 1
 0 512 l 1
 48 549.333333333 143.666666667 624.333333333 287 737 c 1
 334.333333333 699.666666667 429.666666667 624.666666667 573 512 c 1
 492 512 l 1
 457.333333333 539.333333333 389 594 287 676 c 1
 253 648.666666667 184.666666667 594 82 512 c 1
EndSplineSet
Comment: "."
EndChar

StartChar: sh_shl
Encoding: 452 -1 196
Width: 574
Flags: HW
LayerCount: 2
Fore
SplineSet
82 246 m 1
 82 246 82 246 287 246 c 1
 287 246 287 246 287 211 c 2
 287 211 287 211 287 205 c 1
 287 205 287 205 82 205 c 1
 82 205 82 205 82 246 c 1
82 512 m 1
 116 426.666666667 184.333333333 256 287 0 c 1
 239 85.3333333333 143.333333333 256 0 512 c 1
 82 512 l 1
287 348 m 1
 321 375.333333333 389.333333333 430 492 512 c 1
 573 512 l 1
 525.666666667 474.666666667 430.333333333 399.666666667 287 287 c 1
 239 324.333333333 143.333333333 399.333333333 0 512 c 1
 82 512 l 1
 116 484.666666667 184.333333333 430 287 348 c 1
82 512 m 1
 0 512 l 1
 48 549.333333333 143.666666667 624.333333333 287 737 c 1
 334.333333333 699.666666667 429.666666667 624.666666667 573 512 c 1
 492 512 l 1
 457.333333333 539.333333333 389 594 287 676 c 1
 253 648.666666667 184.666666667 594 82 512 c 1
EndSplineSet
Comment: "."
EndChar

StartChar: sh_xl
Encoding: 453 -1 197
Width: 574
Flags: HW
LayerCount: 2
Fore
SplineSet
287 246 m 1
 287 246 287 246 492 246 c 1
 492 246 492 246 492 205 c 1
 492 205 492 205 287 205 c 1
 287 205 287 205 287 233 c 2
 287 233 287 233 287 246 c 1
82 246 m 1
 287 246 l 1
 287 211 l 1
 287 205 l 1
 82 205 l 1
 82 246 l 1
287 348 m 1
 321 375.333333333 389.333333333 430 492 512 c 1
 573 512 l 1
 525.666666667 474.666666667 430.333333333 399.666666667 287 287 c 1
 239 324.333333333 143.333333333 399.333333333 0 512 c 1
 82 512 l 1
 116 484.666666667 184.333333333 430 287 348 c 1
82 512 m 1
 0 512 l 1
 48 549.333333333 143.666666667 624.333333333 287 737 c 1
 334.333333333 699.666666667 429.666666667 624.666666667 573 512 c 1
 492 512 l 1
 457.333333333 539.333333333 389 594 287 676 c 1
 253 648.666666667 184.666666667 594 82 512 c 1
573 512 m 1
 525.666666667 426.666666667 430.333333333 256 287 0 c 1
 321 85.3333333333 389.333333333 256 492 512 c 1
 573 512 l 1
82 512 m 1
 116 426.666666667 184.333333333 256 287 0 c 1
 239 85.3333333333 143.333333333 256 0 512 c 1
 82 512 l 1
EndSplineSet
Ligature2: "'liga' Standard Ligatures in Latin lookup 0-1" sh_x sh_l
Ligature2: "'liga' Standard Ligatures in Latin lookup 0-1" sh_l sh_x
Comment: "."
EndChar

StartChar: sh_f
Encoding: 454 102 198
Width: 574
Flags: HW
LayerCount: 2
Fore
SplineSet
82 512 m 1
 82 512 82 512 0 512 c 1
 48 549.333333333 143.666666667 624.333333333 287 737 c 1
 334.333333333 699.666666667 429.666666667 624.666666667 573 512 c 1
 573 512 573 512 492 512 c 1
 457.333333333 539.333333333 389 594 287 676 c 1
 253 648.666666667 184.666666667 594 82 512 c 1
EndSplineSet
Comment: "."
EndChar

StartChar: sh_y
Encoding: 455 121 199
Width: 574
Flags: HW
LayerCount: 2
Fore
SplineSet
287 369 m 1
 321 392.333333333 389.333333333 440 492 512 c 1
 492 512 492 512 573 512 c 1
 525.666666667 478 430.333333333 409.666666667 287 307 c 1
 239 341 143.333333333 409.333333333 0 512 c 1
 0 512 0 512 82 512 c 1
 116 488 184.333333333 440.333333333 287 369 c 1
EndSplineSet
Comment: "."
EndChar

StartChar: sh_s
Encoding: 456 115 200
Width: 574
Flags: HW
LayerCount: 2
Fore
SplineSet
287 348 m 1
 321 375.333333333 389.333333333 430 492 512 c 1
 492 512 492 512 573 512 c 1
 525.666666667 474.666666667 430.333333333 399.666666667 287 287 c 1
 239 324.333333333 143.333333333 399.333333333 0 512 c 1
 0 512 0 512 82 512 c 1
 116 484.666666667 184.333333333 430 287 348 c 1
82 512 m 1
 82 512 82 512 0 512 c 1
 48 549.333333333 143.666666667 624.333333333 287 737 c 1
 334.333333333 699.666666667 429.666666667 624.666666667 573 512 c 1
 573 512 573 512 492 512 c 1
 457.333333333 539.333333333 389 594 287 676 c 1
 253 648.666666667 184.666666667 594 82 512 c 1
EndSplineSet
Comment: "."
EndChar

StartChar: sh_m
Encoding: 457 109 201
Width: 574
Flags: HW
LayerCount: 2
Fore
SplineSet
277 246 m 5
 277 246 277 246 482 246 c 5
 482 246 482 246 482 205 c 5
 482 205 482 205 277 205 c 5
 277 205 277 205 277 233 c 6
 277 233 277 233 277 246 c 5
72 246 m 5
 277 246 l 5
 277 211 l 5
 277 205 l 5
 72 205 l 5
 72 246 l 5
82 512 m 1
 82 512 82 512 0 512 c 1
 48 549.333333333 143.666666667 624.333333333 287 737 c 1
 334.333333333 699.666666667 429.666666667 624.666666667 573 512 c 1
 573 512 573 512 492 512 c 1
 457.333333333 539.333333333 389 594 287 676 c 1
 253 648.666666667 184.666666667 594 82 512 c 1
EndSplineSet
Comment: "."
EndChar

StartChar: sh_w
Encoding: 458 119 202
Width: 574
Flags: HW
LayerCount: 2
Fore
SplineSet
277 246 m 5
 277 246 277 246 482 246 c 5
 482 246 482 246 482 205 c 5
 482 205 482 205 277 205 c 5
 277 205 277 205 277 233 c 6
 277 233 277 233 277 246 c 5
72 246 m 5
 277 246 l 5
 277 211 l 5
 277 205 l 5
 72 205 l 5
 72 246 l 5
287 369 m 1
 321 392.333333333 389.333333333 440 492 512 c 1
 492 512 492 512 573 512 c 1
 525.666666667 478 430.333333333 409.666666667 287 307 c 1
 239 341 143.333333333 409.333333333 0 512 c 1
 0 512 0 512 82 512 c 1
 116 488 184.333333333 440.333333333 287 369 c 1
EndSplineSet
Comment: "."
EndChar

StartChar: sh_h
Encoding: 459 104 203
Width: 574
Flags: HW
LayerCount: 2
Fore
SplineSet
277 246 m 5
 277 246 277 246 482 246 c 5
 482 246 482 246 482 205 c 5
 482 205 482 205 277 205 c 5
 277 205 277 205 277 233 c 6
 277 233 277 233 277 246 c 5
72 246 m 5
 277 246 l 5
 277 211 l 5
 277 205 l 5
 72 205 l 5
 72 246 l 5
287 348 m 1
 321 375.333333333 389.333333333 430 492 512 c 1
 492 512 492 512 573 512 c 1
 525.666666667 474.666666667 430.333333333 399.666666667 287 287 c 1
 239 324.333333333 143.333333333 399.333333333 0 512 c 1
 0 512 0 512 82 512 c 1
 116 484.666666667 184.333333333 430 287 348 c 1
82 512 m 1
 82 512 82 512 0 512 c 1
 48 549.333333333 143.666666667 624.333333333 287 737 c 1
 334.333333333 699.666666667 429.666666667 624.666666667 573 512 c 1
 573 512 573 512 492 512 c 1
 457.333333333 539.333333333 389 594 287 676 c 1
 253 648.666666667 184.666666667 594 82 512 c 1
EndSplineSet
Comment: "."
EndChar
